<svg version="1" xmlns="http://www.w3.org/2000/svg" width="377.333" height="377.333" viewBox="0 0 283.000000 283.000000"><path d="M46.2 23c-1.8 1.1-4.1 3.4-5.2 5.2-2 3.2-2 5.3-2 115.8s0 112.6 2 115.8c4 6.5 6.4 7.2 26.5 7.2s22.5-.7 26.5-7.2c1.9-3.2 2-5.2 2-51.6V160h81v48.2c0 46.4.1 48.4 2 51.6 4 6.5 6.4 7.2 26.5 7.2s22.5-.7 26.5-7.2c2-3.2 2-5.3 2-115.8s0-112.6-2-115.8c-4-6.5-6.4-7.2-26.5-7.2s-22.5.7-26.5 7.2c-1.9 3.1-2 5.1-2 40.5V106H96V68.7c0-35.4-.1-37.4-2-40.5-4-6.5-6.4-7.2-26.5-7.2-16.2 0-18.3.2-21.3 2z"/></svg>